<?xml version="1.0" encoding="UTF-8"?>
<svg xmlns="http://www.w3.org/2000/svg" width="228.897" height="41.004" viewBox="0 0 228.897 41.004">
  <g id="Group_863" data-name="Group 863" transform="translate(0.5 0.5)">
    <path id="Union_4" data-name="Union 4" d="M111.75,18.453a10.69,10.69,0,0,1-.946-4.4q-.039-1.2-.039-2.481V.274h3.3V11.481a21.714,21.714,0,0,0,.258,4.168,5.586,5.586,0,0,0,.564,1.562,2.236,2.236,0,0,0,.749.75,5.176,5.176,0,0,0,2.685.582,8.97,8.97,0,0,0,2.674-.3,2.172,2.172,0,0,0,1.192-.94,5.253,5.253,0,0,0,.63-2.1,32.019,32.019,0,0,0,.178-3.722V.274h3.3V11.4a28.515,28.515,0,0,1-.258,4.722,9.268,9.268,0,0,1-.729,2.294,4.945,4.945,0,0,1-1.387,1.7,8.42,8.42,0,0,1-5.317,1.448C115.108,21.569,112.8,20.521,111.75,18.453ZM34.986,21.309l-1.979-5.847H25.788l-1.875,5.847H20.45L27.337.274h3.831l7.355,21.035Zm-8.241-8.821h5.263L29.313,4.477Zm132.74,8.82V.274h12.4V3.312h-9.076V9.077h7.318V12.1h-7.318v6.181h9.428v3.025Zm-12,0-3.157-4.971A22.874,22.874,0,0,0,142.7,14.08c-.59-.008-1.154-.021-1.7-.038l-1.315-.054v7.321h-3.325V.38l.513-.039C139.7.123,142.1.014,144.027.014h.26c2.246,0,3.868.534,4.814,1.591a6.424,6.424,0,0,1,1.2,4.33,11.087,11.087,0,0,1-1.079,5.515,4.992,4.992,0,0,1-2.928,2.241c.122.161.241.324.361.489l4.779,7.13Zm-6.1-18.322q-.527.014-1.067.038l-.63.044v8.049c.895.028,2.151.043,3.742.043a3.126,3.126,0,0,0,2.815-1.1,7.915,7.915,0,0,0,.653-3.84c0-1.457-.293-2.4-.868-2.8a2.205,2.205,0,0,0-1.146-.411c-.5-.033-.941-.051-1.317-.051ZM94.78,21.308v-18H89.468V.274H103.6V3.312h-5.5v18Zm-25.438,0V.4l.5-.047C72.378.12,74.933,0,77.437,0c2.257,0,3.881.541,4.829,1.606a6.34,6.34,0,0,1,1.209,4.328V7.47a13.094,13.094,0,0,1-.493,3.811c-.745,2.335-2.517,3.6-5.276,3.775a24.052,24.052,0,0,1-5.039-.239v6.491ZM72.667,3.093V11.85a29.59,29.59,0,0,0,3.5.234,8.237,8.237,0,0,0,2.379-.227,1.764,1.764,0,0,0,.927-.648c.284-.4.625-1.364.625-3.713V5.881A3.409,3.409,0,0,0,79.514,3.6a2.584,2.584,0,0,0-1.986-.614C75.486,2.986,73.856,3.022,72.667,3.093ZM46.192,21.308V.4l.5-.047C49.227.12,51.782,0,54.288,0c2.256,0,3.881.541,4.829,1.606a6.34,6.34,0,0,1,1.209,4.328V7.47a13.016,13.016,0,0,1-.494,3.811c-.743,2.335-2.517,3.6-5.275,3.775a24.055,24.055,0,0,1-5.039-.239v6.491ZM49.517,3.093V11.85a29.6,29.6,0,0,0,3.5.234,8.254,8.254,0,0,0,2.38-.227,1.771,1.771,0,0,0,.926-.648c.286-.4.625-1.364.625-3.713V5.881A3.42,3.42,0,0,0,56.365,3.6a2.589,2.589,0,0,0-1.987-.614C52.336,2.986,50.705,3.022,49.517,3.093ZM11.258,21.308,6.913,15.162c-1.605-2.253-2.592-2.767-3.137-2.8-.127-.008-.259-.012-.394-.012H3.325v8.958H0V.274H3.325V9.6a.68.68,0,0,0,.155-.03,3.435,3.435,0,0,0,.437-.276,5.592,5.592,0,0,0,.79-.8q.575-.659,1.23-1.5C7.091,5.423,7.927,4.255,8.416,3.528L9.623,1.683c.3-.474.527-.854.68-1.133l.158-.29h3.768l-.353.783a7.738,7.738,0,0,1-.494.864q-1.148,1.768-1.828,2.711L9.049,8,7.9,9.41c-.425.508-.746.859-1,1.108a8.511,8.511,0,0,1,2.18,2.2l6.392,8.587Z" transform="translate(55.66 9.219)" fill="#fff" stroke="rgba(0,0,0,0)" stroke-miterlimit="10" stroke-width="1"></path>
    <path id="Union_5" data-name="Union 5" d="M33.321,40,26.782,28.567H0V22.852H29.983L40,40ZM0,40V34.289H23.443L26.782,40ZM0,17.151V11.437H26.782L33.321,0H40L29.983,17.151ZM0,5.714V0H26.782L23.443,5.714Z" fill="#e72278" stroke="rgba(0,0,0,0)" stroke-miterlimit="10" stroke-width="1"></path>
  </g>
</svg>
