<svg xmlns="http://www.w3.org/2000/svg" width="312.38mm" height="75.21mm" viewBox="0 0 885.5 213.2"><title>nanswap</title><circle cx="106.6" cy="106.6" r="106.6" fill="#4a90e2"/><path d="M166.7,66.5a20,20,0,0,1-20,20c-15,0-20,5-20,20a20,20,0,0,1-20,20c-15,0-20,5-20,20a20,20,0,1,1-20-20c15,0,20-5,20-20a20,20,0,0,1,20-20c15,0,20-5,20-20a20,20,0,0,1,40,0Z" fill="#000034"/><path d="M66.5,46.5a20,20,0,0,1,20,20c0,15,5,20,20,20a20,20,0,0,1,20,20c0,15,5,20,20,20a20,20,0,1,1-20,20c0-15-5-20-20-20a20,20,0,0,1-20-20c0-15-5-20-20-20a20,20,0,0,1,0-40Z" fill="#000034"/><rect x="283.5" y="26.05" width="2.7" height="22.7" fill="none"/><rect x="244.2" y="59.95" width="641.3" height="120" fill="none"/><g style="isolation:isolate"><path d="M270.86,59.22,311.66,121V58.65q0-6.07,2.61-9.11a8.8,8.8,0,0,1,7-3,9.07,9.07,0,0,1,7.22,3q2.64,3,2.64,9.11V141q0,13.78-11.43,13.79a15.12,15.12,0,0,1-5.15-.82,13.09,13.09,0,0,1-4.28-2.61,24.8,24.8,0,0,1-3.72-4.18c-1.14-1.6-2.29-3.23-3.43-4.89l-39.8-61v61.38q0,6-2.79,9.08a9.21,9.21,0,0,1-7.14,3.07,9.11,9.11,0,0,1-7.22-3.11q-2.72-3.1-2.72-9V61.86a22.64,22.64,0,0,1,1.15-8.07,11.4,11.4,0,0,1,4.5-5.25,12.23,12.23,0,0,1,6.79-2,11.12,11.12,0,0,1,8.46,3.43A25.76,25.76,0,0,1,267.54,54Q269.15,56.51,270.86,59.22Z" fill="#ffffff"/><path d="M401.17,143.83a60.53,60.53,0,0,1-13.68,8.25,38.35,38.35,0,0,1-14.83,2.75,28,28,0,0,1-13.18-3,21.66,21.66,0,0,1-8.76-8,20.87,20.87,0,0,1-3.07-11,19.73,19.73,0,0,1,5.07-13.65q5.08-5.64,13.94-7.57,1.86-.43,9.22-1.93t12.61-2.75q5.25-1.24,11.4-3-.36-7.71-3.11-11.32T385.38,89Q378,89,374.2,91a18,18,0,0,0-6.43,6.22A66.23,66.23,0,0,1,364,102.7q-1.11,1.32-4.75,1.32a8.32,8.32,0,0,1-5.68-2.1,6.88,6.88,0,0,1-2.4-5.4,16.5,16.5,0,0,1,3.65-10q3.65-4.86,11.36-8t19.22-3.14q12.87,0,20.22,3A18.8,18.8,0,0,1,416,88q3,6.57,3,17.43c0,4.58,0,8.46,0,11.65s-.06,6.74-.11,10.65a39.08,39.08,0,0,0,1.83,11.47q1.81,6,1.82,7.68a7.17,7.17,0,0,1-2.82,5.46,9.46,9.46,0,0,1-6.4,2.47,8.62,8.62,0,0,1-5.93-2.82A42,42,0,0,1,401.17,143.83Zm-1.28-28.23a97.08,97.08,0,0,1-12.47,3.32q-8.19,1.76-11.33,2.57a15.33,15.33,0,0,0-6,3.22,8.23,8.23,0,0,0-2.86,6.68,9.88,9.88,0,0,0,3.36,7.54,12.44,12.44,0,0,0,8.79,3.11,22.86,22.86,0,0,0,10.68-2.54,16.9,16.9,0,0,0,7.18-6.54q2.64-4.43,2.65-14.57Z" fill="#ffffff"/><path d="M455.38,86.3v2.36a34,34,0,0,1,11.26-10,30,30,0,0,1,14-3.18,28,28,0,0,1,13.79,3.36,21.32,21.32,0,0,1,9.07,9.51,22.46,22.46,0,0,1,2.5,7.71,80,80,0,0,1,.58,10.58V143c0,3.9-.9,6.86-2.68,8.86a9.65,9.65,0,0,1-14.05-.07q-2.72-3.07-2.71-8.79V110.46c0-6.44-.89-11.35-2.68-14.76s-5.35-5.11-10.68-5.11a15.85,15.85,0,0,0-9.51,3.11,17.87,17.87,0,0,0-6.28,8.54q-1.44,4.35-1.43,16.29V143c0,3.95-.92,6.92-2.75,8.89a9.28,9.28,0,0,1-7.12,3,8.83,8.83,0,0,1-6.93-3.07q-2.71-3.07-2.71-8.79V86.59c0-3.72.81-6.49,2.43-8.33a8.41,8.41,0,0,1,6.64-2.75,9,9,0,0,1,4.65,1.22,8.67,8.67,0,0,1,3.32,3.64A12.9,12.9,0,0,1,455.38,86.3Z" fill="#ffffff"/><path d="M587.69,129.32a22.61,22.61,0,0,1-15.54,22.54q-7.68,3-18.69,3a45.42,45.42,0,0,1-18-3.22q-7.5-3.21-11.08-8a16.24,16.24,0,0,1-3.57-9.69,7.49,7.49,0,0,1,2.29-5.5,7.85,7.85,0,0,1,5.78-2.29,6.77,6.77,0,0,1,4.72,1.5,16.76,16.76,0,0,1,3.14,4.22,21.39,21.39,0,0,0,7.19,7.79q4.17,2.56,11.39,2.57a16.45,16.45,0,0,0,9.61-2.61c2.5-1.73,3.76-3.72,3.76-6q0-5.15-3.9-7.51T552,121.6a105.31,105.31,0,0,1-16.4-5.25,27.05,27.05,0,0,1-10.11-7.25A16.66,16.66,0,0,1,521.67,98,19.47,19.47,0,0,1,525.17,87a24,24,0,0,1,10.32-8.33A39.58,39.58,0,0,1,552,75.51a54.57,54.57,0,0,1,13.62,1.57,34.07,34.07,0,0,1,10.07,4.22,20.92,20.92,0,0,1,6.15,5.86,11.5,11.5,0,0,1,2.11,6.29,7.26,7.26,0,0,1-2.25,5.5,8.94,8.94,0,0,1-6.4,2.14,7.86,7.86,0,0,1-5.11-1.71,33.21,33.21,0,0,1-4.82-5.15,17.72,17.72,0,0,0-5.22-4.57A16.49,16.49,0,0,0,552,88a16,16,0,0,0-8.79,2.25q-3.49,2.25-3.5,5.61a6.06,6.06,0,0,0,2.58,5,21.31,21.31,0,0,0,6.93,3.26q4.35,1.28,12,3.14A64.31,64.31,0,0,1,576,112.53a24.71,24.71,0,0,1,8.72,7.25A16.14,16.14,0,0,1,587.69,129.32Z" fill="#ffffff"/><path d="M611.53,87.66l12.72,43.59,11.58-40.52c1.24-4.24,2.15-7.13,2.75-8.68a11.21,11.21,0,0,1,3.36-4.43,10.07,10.07,0,0,1,6.75-2.11,10.17,10.17,0,0,1,6.82,2.11A12.07,12.07,0,0,1,659,82.19c.67,1.65,1.6,4.49,2.79,8.54l11.57,40.52,12.87-43.59c.85-3.14,1.54-5.42,2.07-6.82a9,9,0,0,1,2.64-3.72,8,8,0,0,1,5.36-1.61,8.54,8.54,0,0,1,6.07,2.43,7.62,7.62,0,0,1,2.58,5.72c0,2-.74,5-2.22,9.07l-15.93,46.74q-2.09,5.92-3.22,8.57a12.72,12.72,0,0,1-3.61,4.72,12,12,0,0,1-13.72-.15,13.28,13.28,0,0,1-3.75-5.43q-1.22-3.21-2.64-8.36l-11.15-38-10.79,38a46.93,46.93,0,0,1-4.64,12q-2.5,4-8.79,4a11.14,11.14,0,0,1-5.47-1.25,10.47,10.47,0,0,1-3.75-3.57,27.18,27.18,0,0,1-2.65-5.51q-1.14-3.17-1.78-5L595,92.73c-1.58-4.38-2.36-7.4-2.36-9.07a7.79,7.79,0,0,1,2.5-5.65,8.37,8.37,0,0,1,6.14-2.5q4.86,0,6.58,2.75A40.83,40.83,0,0,1,611.53,87.66Z" fill="#ffffff"/><path d="M764.57,143.83a60.58,60.58,0,0,1-13.69,8.25,38.3,38.3,0,0,1-14.82,2.75,28.07,28.07,0,0,1-13.19-3,21.63,21.63,0,0,1-8.75-8,20.87,20.87,0,0,1-3.07-11,19.73,19.73,0,0,1,5.07-13.65q5.07-5.64,13.93-7.57c1.24-.29,4.32-.93,9.22-1.93s9.11-1.92,12.61-2.75,7.3-1.85,11.4-3q-.36-7.71-3.11-11.32T748.78,89q-7.44,0-11.19,2.07a18.13,18.13,0,0,0-6.43,6.22,66.23,66.23,0,0,1-3.79,5.46c-.73.88-2.32,1.32-4.75,1.32a8.34,8.34,0,0,1-5.68-2.1,6.87,6.87,0,0,1-2.39-5.4,16.48,16.48,0,0,1,3.64-10q3.64-4.86,11.36-8t19.23-3.14q12.86,0,20.22,3A18.78,18.78,0,0,1,779.39,88q3,6.57,3,17.43,0,6.87,0,11.65c0,3.19-.06,6.74-.11,10.65a39.39,39.39,0,0,0,1.82,11.47c1.22,4,1.82,6.54,1.82,7.68a7.17,7.17,0,0,1-2.82,5.46,9.43,9.43,0,0,1-6.4,2.47,8.64,8.64,0,0,1-5.93-2.82A42,42,0,0,1,764.57,143.83Zm-1.29-28.23a96.62,96.62,0,0,1-12.47,3.32q-8.17,1.76-11.32,2.57a15.43,15.43,0,0,0-6,3.22,8.25,8.25,0,0,0-2.85,6.68,9.87,9.87,0,0,0,3.35,7.54,12.44,12.44,0,0,0,8.79,3.11,22.93,22.93,0,0,0,10.69-2.54,17,17,0,0,0,7.18-6.54q2.64-4.43,2.64-14.57Z" fill="#ffffff"/><path d="M817.13,86.45V88.8a38.64,38.64,0,0,1,11.43-10A28,28,0,0,1,842,75.65a31.1,31.1,0,0,1,16.58,4.65,32,32,0,0,1,12,13.58q4.4,8.93,4.39,21.15a51.64,51.64,0,0,1-2.54,16.54,37.16,37.16,0,0,1-7,12.65A30.43,30.43,0,0,1,855,152.08a31,31,0,0,1-13,2.75q-8.36,0-14-3.36a40,40,0,0,1-10.83-9.86v29.3q0,12.85-9.36,12.86-5.5,0-7.29-3.32t-1.78-9.68V86.59c0-3.72.81-6.49,2.42-8.33a8.43,8.43,0,0,1,6.65-2.75,8.78,8.78,0,0,1,6.75,2.82C816.26,80.22,817.13,82.92,817.13,86.45Zm38.23,28.36A33.75,33.75,0,0,0,853,101.56a19.51,19.51,0,0,0-6.53-8.51,15.71,15.71,0,0,0-9.26-3,17.36,17.36,0,0,0-13.61,6.36q-5.54,6.36-5.54,18.72,0,11.65,5.5,18.12a17.22,17.22,0,0,0,13.65,6.46,15.67,15.67,0,0,0,9-2.82,19.34,19.34,0,0,0,6.65-8.47A33.52,33.52,0,0,0,855.36,114.81Z" fill="#ffffff"/></g></svg>