<?xml version="1.0" encoding="utf-8"?>
<!-- Generator: Adobe Illustrator 19.2.1, SVG Export Plug-In . SVG Version: 6.00 Build 0)  -->
<svg version="1.1" id="Layer_1" xmlns="http://www.w3.org/2000/svg" xmlns:xlink="http://www.w3.org/1999/xlink" x="0px" y="0px"
	 viewBox="0 0 155 175" style="enable-background:new 0 0 155 175;" xml:space="preserve">
<style type="text/css">
	.st0{fill:#FE3B1F;}
</style>
<path class="st0" d="M99.2,25.8L99.1,26L99,25.8L76.9,47L55.3,25.8H27.4l-23,22.5v49.2l72.4,71l73.8-71.3V48.6l-23.7-22.8L99.2,25.8
	z M102.4,37h21l0.1,0.1l-17.2,38.6L84.4,54.3L102.4,37z M72.9,150.2L56.4,134l15.2-35l16.9,16.4L72.9,150.2z M63.8,91.4l-15.4,34.7
	L29.9,108L55,82.9L63.8,91.4z M93,105.2L61.4,74.1l8.4-19.8l10.2,10l21.6,21.4L93,105.2z M31.4,37h20.8l10,9.9l-8.6,19.7L27.1,41.3
	L31.4,37z M15.6,52.9l3.7-3.7l28.3,26.5l-25.1,25.1L15.6,94L15.6,52.9z M139.3,93.8l-52.7,50.3l22.6-50.8l0.1,0.1v-0.2l2.4-5.3h27.6
	L139.3,93.8z M139.3,77h-22.8L131,44.5l8.4,8.2V77z"/>
</svg>
