<?xml version="1.0" encoding="UTF-8"?>
<svg xmlns="http://www.w3.org/2000/svg" version="1.1" viewBox="0 0 575.8 147">
  <!-- Generator: Adobe Illustrator 28.7.1, SVG Export Plug-In . SVG Version: 1.2.0 Build 142)  -->
  <g>
    <g id="Layer_1">
      <g>
        <g>
          <path d="M46.7,41.9L70.2,1.5h22.4l-33.8,55.5,34.6,56.4h-22.7l-24-41-24.1,41H0l34.6-56.4L.8,1.5h22.4l23.5,40.4Z" style="fill: #fff;"/>
          <path d="M196.5,113.4h-19.4l-49.9-79.4v79.4h-19.4V1.5h19.4l50,79.7V1.5h19.3v111.8Z" style="fill: #fff;"/>
          <path d="M308.7,60.4c0,11-1.9,20.6-5.7,28.8-3.8,8.3-9.2,14.6-16.2,19.1-7,4.4-15.1,6.6-24.3,6.6s-17.1-2.2-24.2-6.6c-7.1-4.4-12.6-10.7-16.4-18.9-3.9-8.2-5.8-17.6-5.9-28.3v-6.3c0-10.9,1.9-20.5,5.8-28.9,3.9-8.3,9.3-14.7,16.4-19.2,7-4.4,15.1-6.6,24.2-6.6s17.2,2.2,24.2,6.6c7,4.4,12.5,10.7,16.3,18.9,3.8,8.2,5.8,17.8,5.8,28.7v6.2ZM289.3,54.5c0-12.4-2.3-21.9-7-28.5-4.7-6.6-11.3-9.9-19.9-9.9s-15,3.3-19.7,9.9c-4.7,6.6-7.2,15.9-7.3,27.9v6.5c0,12.3,2.4,21.8,7.2,28.5,4.8,6.7,11.4,10.1,19.9,10.1s15.2-3.3,19.9-9.8c4.6-6.6,7-16.1,7-28.7v-5.8Z" style="fill: #fff;"/>
          <path d="M347.5,71.9v41.5h-19.4V1.5h42.8c12.5,0,22.4,3.3,29.8,9.8,7.3,6.5,11,15.1,11,25.8s-3.6,19.5-10.8,25.6c-7.2,6.1-17.3,9.2-30.2,9.2h-23.1ZM347.5,56.2h23.4c6.9,0,12.2-1.6,15.8-4.9,3.6-3.3,5.5-8,5.5-14.1s-1.8-10.9-5.5-14.5c-3.7-3.6-8.8-5.5-15.2-5.6h-23.9v39Z" style="fill: #fff;"/>
          <path d="M475.7,113.4c-.8-1.6-1.5-4.2-2.2-7.8-5.9,6.2-13.2,9.3-21.8,9.3s-15.2-2.4-20.4-7.1c-5.3-4.8-7.9-10.7-7.9-17.7s3.3-15.7,9.9-20.4c6.6-4.7,16-7.1,28.2-7.1h11.4v-5.5c0-4.3-1.2-7.7-3.6-10.3-2.4-2.6-6.1-3.9-11-3.9s-7.7,1.1-10.4,3.2c-2.7,2.1-4.1,4.8-4.1,8.1h-18.7c0-4.6,1.5-8.8,4.5-12.8,3-4,7.1-7.1,12.3-9.3,5.2-2.3,11-3.4,17.4-3.4,9.7,0,17.5,2.4,23.3,7.3,5.8,4.9,8.8,11.8,8.9,20.6v37.5c0,7.5,1,13.4,3.1,17.9v1.3h-19ZM455.1,99.9c3.7,0,7.2-.9,10.4-2.7,3.3-1.8,5.7-4.2,7.3-7.2v-15.7h-10.1c-6.9,0-12.1,1.2-15.6,3.6-3.5,2.4-5.2,5.8-5.2,10.2s1.2,6.4,3.6,8.6c2.4,2.1,5.6,3.2,9.6,3.2Z" style="fill: #fff;"/>
          <path d="M539,86.6l16.9-56.4h19.9l-33,95.7c-5.1,14-13.7,21-25.8,21s-5.7-.5-9-1.4v-14.5l3.5.2c4.7,0,8.3-.9,10.6-2.6,2.4-1.7,4.3-4.6,5.6-8.6l2.7-7.1-29.2-82.7h20.1l17.6,56.4Z" style="fill: #fff;"/>
        </g>
        <rect x="8.5" y="47" width="76.1" height="18" style="fill: #fff;"/>
      </g>
    </g>
  </g>
</svg>